<?xml version="1.0" encoding="UTF-8"?>
<svg width="512" height="512" enable-background="new 0 0 64 64" version="1.1" viewBox="0 0 64 64" xmlns="http://www.w3.org/2000/svg" xmlns:cc="http://creativecommons.org/ns#" xmlns:dc="http://purl.org/dc/elements/1.1/" xmlns:rdf="http://www.w3.org/1999/02/22-rdf-syntax-ns#">
<metadata>
<rdf:RDF>
<cc:Work rdf:about="">
<dc:format>image/svg+xml</dc:format>
<dc:type rdf:resource="http://purl.org/dc/dcmitype/StillImage"/>
<dc:title/>
</cc:Work>
</rdf:RDF>
</metadata>
<path d="m50.984 37.008h4.001c.553 0 1-.447 1-1s-.447-1-1-1h-4.001c-.553 0-1 .447-1 1s.448 1 1 1z"/>
<path d="m36.989 37.008h8.005c.553 0 1-.447 1-1s-.447-1-1-1h-8.005c-.553 0-1 .447-1 1s.448 1 1 1z"/>
<path d="m36.989 41.008h4.001c.553 0 1-.447 1-1s-.447-1-1-1h-4.001c-.553 0-1 .447-1 1s.448 1 1 1z"/>
<path d="m36.989 45.008h9.006c.553 0 1-.447 1-1s-.447-1-1-1h-9.006c-.553 0-1 .447-1 1s.448 1 1 1z"/>
<path d="m36.989 49.008h6.003c.553 0 1-.447 1-1s-.447-1-1-1h-6.003c-.553 0-1 .447-1 1s.448 1 1 1z"/>
<path d="m54.985 39.008h-1.999c-.553 0-1 .447-1 1s.447 1 1 1h1.999c.553 0 1-.447 1-1s-.447-1-1-1z"/>
<path d="m54.985 43.008h-.998c-.553 0-1 .447-1 1s.447 1 1 1h.998c.553 0 1-.447 1-1s-.447-1-1-1z"/>
<path d="m54.985 47.008h-3c-.553 0-1 .447-1 1s.447 1 1 1h3c.553 0 1-.447 1-1s-.447-1-1-1z"/>
<path d="m50.984 13.004h4.001c.553 0 1-.447 1-1s-.447-1-1-1h-4.001c-.553 0-1 .447-1 1s.448 1 1 1z"/>
<path d="m36.989 13.004h8.005c.553 0 1-.447 1-1s-.447-1-1-1h-8.005c-.553 0-1 .447-1 1s.448 1 1 1z"/>
<path d="m36.989 17.004h4.001c.553 0 1-.447 1-1s-.447-1-1-1h-4.001c-.553 0-1 .447-1 1s.448 1 1 1z"/>
<path d="m36.989 21.004h9.006c.553 0 1-.447 1-1s-.447-1-1-1h-9.006c-.553 0-1 .447-1 1s.448 1 1 1z"/>
<path d="m36.989 25.004h6.003c.553 0 1-.447 1-1s-.447-1-1-1h-6.003c-.553 0-1 .447-1 1s.448 1 1 1z"/>
<path d="m54.985 15.004h-1.999c-.553 0-1 .447-1 1s.447 1 1 1h1.999c.553 0 1-.447 1-1s-.447-1-1-1z"/>
<path d="m54.985 19.004h-.998c-.553 0-1 .447-1 1s.447 1 1 1h.998c.553 0 1-.447 1-1s-.447-1-1-1z"/>
<path d="m54.985 23.004h-3c-.553 0-1 .447-1 1s.447 1 1 1h3c.553 0 1-.447 1-1s-.447-1-1-1z"/>
<path d="m36.989 29.004h9.006c.553 0 1-.447 1-1s-.447-1-1-1h-9.006c-.553 0-1 .447-1 1s.448 1 1 1z"/>
<path d="m50.984 29.004h4.001c.553 0 1-.447 1-1s-.447-1-1-1h-4.001c-.553 0-1 .447-1 1s.448 1 1 1z"/>
<path d="m36.989 33.004h4.001c.553 0 1-.447 1-1s-.447-1-1-1h-4.001c-.553 0-1 .447-1 1s.448 1 1 1z"/>
<path d="m54.985 31.004h-.998c-.553 0-1 .447-1 1s.447 1 1 1h.998c.553 0 1-.447 1-1s-.447-1-1-1z"/>
<path d="m27 35.008h-4.001c-.553 0-1 .447-1 1s.447 1 1 1h4.001c.553 0 1-.447 1-1s-.447-1-1-1z"/>
<path d="m18.009 36.008c0-.553-.447-1-1-1h-8.005c-.553 0-1 .447-1 1s.447 1 1 1h8.005c.553 0 1-.447 1-1z"/>
<path d="m9.004 39.008c-.553 0-1 .447-1 1s.447 1 1 1h4.001c.553 0 1-.447 1-1s-.447-1-1-1z"/>
<path d="m18.01 43.008h-9.006c-.553 0-1 .447-1 1s.447 1 1 1h9.006c.553 0 1-.447 1-1s-.447-1-1-1z"/>
<path d="m15.007 47.008h-6.003c-.553 0-1 .447-1 1s.447 1 1 1h6.003c.553 0 1-.447 1-1s-.447-1-1-1z"/>
<path d="m27 39.008h-1.999c-.553 0-1 .447-1 1s.447 1 1 1h1.999c.553 0 1-.447 1-1s-.447-1-1-1z"/>
<path d="m9.004 33h4.001c.553 0 1-.447 1-1s-.447-1-1-1h-4.001c-.553 0-1 .447-1 1s.447 1 1 1z"/>
<path d="m27 31h-1.999c-.553 0-1 .447-1 1s.447 1 1 1h1.999c.553 0 1-.447 1-1s-.447-1-1-1z"/>
<path d="m27 43.008h-.998c-.553 0-1 .447-1 1s.447 1 1 1h.998c.553 0 1-.447 1-1s-.447-1-1-1z"/>
<path d="m27 47.008h-3c-.553 0-1 .447-1 1s.447 1 1 1h3c.553 0 1-.447 1-1s-.447-1-1-1z"/>
<path d="m59.983 4.005c-.007 0-.013.004-.02.004h-23.973c-1.637 0-3.08.804-3.99 2.025-.91-1.222-2.354-2.025-3.99-2.025h-23.974c-.007 0-.013-.004-.02-.004-.553 0-1 .447-1 1v2.993h-2.008c-.553 0-1 .447-1 1v49.982c0 .005-.003.01-.003.015 0 .553.447 1 1 1h30.994.001.001 30.994c.553 0 1-.447 1-1 0-.005-.003-.01-.003-.015v-49.982c0-.553-.447-1-1-1h-2.009v-2.993c0-.553-.447-1-1-1zm-57.975 53.99v-47.997h1.009v45.008c0 .553.447 1 1 1h23.993c1.296 0 2.391.834 2.805 1.989zm28.982-48.997v46.021c-.834-.627-1.859-1.013-2.98-1.013h-22.993v-47.997h22.993c1.639 0 2.971 1.325 2.986 2.96 0 .01-.006.018-.006.029zm2.014-.029c.016-1.635 1.348-2.96 2.986-2.96h22.993v47.997h-22.993c-1.121 0-2.146.386-2.98 1.013v-46.021c0-.011-.006-.019-.006-.029zm28.988 1.029v47.997h-28.806c.414-1.155 1.509-1.989 2.805-1.989h23.993c.553 0 1-.447 1-1v-45.008z"/>
<path d="m8.994 25.99h17.999c.553 0 1-.447 1-1s-.446-.999-.999-1v-2.002c0-.002-.001-.004-.001-.007-.004-4.62-3.509-8.433-8-8.933v-.061c0-.553-.447-1-1-1s-1 .447-1 1v.061c-4.493.5-7.999 4.316-8 8.939v2.002c-.552.001-.999.447-.999 1s.447 1.001 1 1.001zm1.999-4.001c0-3.859 3.141-6.999 7-6.999s7 3.14 7 6.999c0 .002.001.003.001.005v1.996h-14.001z"/>
<path d="m17.999 15.994c-.553 0-1 .447-1 1s.447 1 1 1c2.202 0 3.994 1.792 3.994 3.994 0 .553.447 1 1 1s1-.447 1-1c0-3.305-2.688-5.994-5.994-5.994z"/>
<g stroke-width="1.0847">
<path transform="scale(.125)" d="m88.414 178.89c0.97602-19.694 5.364-30.85 16.525-42.01 21.638-21.638 56.417-21.638 78.055 0 11.142 11.142 15.475 22.169 16.506 42.01l0.66245 12.746h-112.38zm101.62 2.4717c2.3055-2.4541 2.4634-3.3379 1.867-10.452-1.8517-22.088-20.855-41.091-42.943-42.943-7.1137-0.59639-7.9975-0.43851-10.452 1.867-2.8281 2.6568-3.5155 7.2319-1.619 10.776 1.2437 2.3239 6.528 4.3773 11.303 4.3924 5.1808 0.0163 13.737 4.5681 18.652 9.9226 4.796 5.2246 7.5028 11.435 8.588 19.704 0.38772 2.9542 1.5966 6.1409 2.7778 7.322 3.0188 3.0188 8.7012 2.7354 11.825-0.58953z" fill="#fc0"/>
<path transform="scale(.125)" d="m16.978 272.49v-191.46h6.5085v180.02c0 129.62 0.33717 180.76 1.2044 182.66 0.6624 1.4538 2.3938 3.1852 3.8477 3.8476 1.8753 0.85446 31.317 1.2044 101.34 1.2044 86.773 0 99.183 0.20351 102.73 1.6847 4.7099 1.9674 9.545 6.2955 11.751 10.519l1.5581 2.983h-228.94z" fill="#19a395"/>
<path transform="scale(.125)" d="m266.47 463.19c0-2.6014 6.4222-9.311 11.183-11.683l5.5141-2.7478h199.05l6.0871-5.2358 0.28061-181.25 0.28063-181.25h6.4896v382.92h-114.44c-62.942 0-114.44-0.33986-114.44-0.75525z" fill="#19a395"/>
</g>
<path transform="scale(.125)" d="m239.62 434.65c-5.6905-2.5552-13.129-2.7583-102.4-2.7956l-96.262-0.0402v-383.52h93.093c91.021 0 93.24 0.07072 99.656 3.177 3.6095 1.7473 7.9722 5.4575 9.6948 8.2448 3.1141 5.0388 3.1299 6.1358 2.7425 191.38l-0.38966 186.31zm-115.82-43.163c5.372-2.7033 6.0952-10.612 1.2789-13.985-2.8704-2.0105-8.1944-2.4485-29.763-2.4485-23.914 0-26.505 0.26272-28.921 2.9325-3.7402 4.1329-2.6183 11.086 2.1783 13.501 5.303 2.6694 49.922 2.6698 55.226 5.5e-4zm95.596 0.21147c6.4666-3.4037 7.4722-8.6884 2.5838-13.577-2.6272-2.6272-5.1135-3.0681-17.3-3.0681-17.05 0-21.499 2.0795-20.754 9.7003 0.32355 3.3086 1.6632 5.4039 4.3049 6.7333 4.8139 2.4225 26.683 2.5708 31.166 0.21147zm-69.517-33.52c3.9061-3.9061 3.9061-8.3664 0-12.272-2.903-2.903-5.1135-3.0681-41.078-3.0681-42.163 0-44.829 0.54733-44.829 9.2044s2.6657 9.2044 44.829 9.2044c35.965 0 38.175-0.1651 41.078-3.0681zm72.101 0c3.612-3.612 3.9083-7.469 0.89069-11.596-1.7115-2.3406-4.0358-2.9778-10.862-2.9778-6.8264 0-9.1506 0.63718-10.862 2.9778-5.3658 7.3382 0.0606 14.664 10.862 14.664 4.8579 0 7.8124-0.90907 9.9714-3.0681zm-111.99-32.215c3.9494-3.9494 3.8953-7.9792-0.15638-11.651-2.6925-2.4402-6.046-2.9931-20.326-3.3513-19.602-0.49165-24.479 1.0305-25.271 7.887-0.29358 2.5434 0.59244 5.5242 2.1553 7.2512 2.3399 2.5856 4.8941 2.9325 21.592 2.9325 16.893 0 19.269-0.33138 22.006-3.0681zm111.99 0c3.9508-3.9508 3.8951-7.9804-0.16106-11.651-4.7522-4.3007-25.187-4.2608-28.343 0.0554-3.1836 4.3539-2.6623 9.5481 1.232 12.276 5.3244 3.7294 23.311 3.2809 27.272-0.68005zm-79.771-32.215c3.6924-3.6924 3.8362-5.8911 0.68004-10.397-2.3538-3.3605-2.9116-3.4095-38.812-3.4095-39.104 0-40.105 0.19639-40.105 7.8675 0 8.6718 1.4888 9.0071 39.995 9.0071 33.128 0 35.352-0.17841 38.242-3.0681zm79.771 0c3.6924-3.6924 3.8362-5.8911 0.68005-10.397-2.2634-3.2314-3.4492-3.4095-22.704-3.4095-21.936 0-23.998 0.67586-23.998 7.8675 0 7.9102 2.9092 9.0071 23.888 9.0071 17.021 0 19.395-0.32915 22.134-3.0681zm-110.6-33.956c2.0321-3.6246 1.9946-4.4561-0.36268-8.0538-2.6164-3.9931-2.7244-4.0119-22.996-4.0119-13.796 0-20.962 0.59396-22.209 1.8409-2.8288 2.8288-2.2795 11.554 0.84373 13.401 1.5713 0.92909 10.932 1.4378 22.571 1.2268 19.727-0.35774 19.905-0.39301 22.153-4.4025zm111.62 0.79701c2.3564-3.5963 2.3942-4.4307 0.36519-8.0538-2.1165-3.7793-3.0713-4.0707-14.697-4.4847-13.449-0.479-17.373 1.2645-17.373 7.7184 0 6.692 4.138 8.8321 17.077 8.8321 11.248 0 12.164-0.25138 14.628-4.0119zm-0.88752-55.603c3.843-4.7473 3.6984-7.3061-0.64463-11.409-3.0749-2.9047-3.8015-5.7453-5.1824-20.258-2.0424-21.466-7.1756-33.605-19.814-46.855-10.214-10.708-20.893-17.276-33.38-20.528-5.8962-1.5358-9.9021-3.6349-11.982-6.2785-3.9724-5.05-11.941-4.8585-14.223 0.34189-1.0463 2.3838-3.7558 3.9067-9.2044 5.1731-19.926 4.6316-39.889 20.406-48.703 38.485-5.5442 11.371-7.2587 19.481-7.3037 34.549-0.03341 11.183-0.37196 12.659-3.1021 13.525-3.1972 1.0148-5.2586 6.2166-4.3445 10.963 1.2415 6.4465 4.5307 6.7004 81.564 6.297l73.388-0.38436z" fill="#fff" stroke-width="1.5341"/>
<path transform="scale(.125)" d="m264.93 251.83v-186.2l3.4516-5.0715c1.8984-2.7893 5.4001-6.5156 7.7816-8.2807 4.2685-3.1636 5.6781-3.2153 99.331-3.6376l95.001-0.42839v383.52l-97.796 0.42713c-90.303 0.39439-98.178 0.63584-102.78 3.1511l-4.9857 2.724zm82.839 139.66c5.372-2.7033 6.0952-10.612 1.2789-13.985-2.8704-2.0105-8.1944-2.4485-29.763-2.4485-23.914 0-26.505 0.26272-28.921 2.9325-3.7402 4.1329-2.6183 11.086 2.1783 13.501 5.303 2.6694 49.922 2.6698 55.226 5.5e-4zm97.483-1.7902c4.5678-4.5678 4.746-7.5265 0.69731-11.575-2.6272-2.6272-5.1135-3.0681-17.3-3.0681-17.05 0-21.499 2.0795-20.754 9.7003 0.65159 6.6631 5.445 8.6584 20.866 8.6859 11.482 0.0204 13.094-0.34547 16.491-3.7428zm-71.404-31.518c3.9061-3.9061 3.9061-8.3664 0-12.272-2.903-2.903-5.1135-3.0681-41.078-3.0681-42.163 0-44.829 0.54733-44.829 9.2044s2.6657 9.2044 44.829 9.2044c35.965 0 38.175-0.1651 41.078-3.0681zm73.125-0.8598c5.0831-6.9516 0.83011-13.072-9.7933-14.092-6.4534-0.62008-8.2928-0.20165-10.996 2.5015-1.7854 1.7854-3.2462 4.6268-3.2462 6.3143s1.4608 4.5289 3.2462 6.3143c2.7032 2.7032 4.5425 3.1216 10.996 2.5015 5.0853-0.48864 8.4524-1.7055 9.7933-3.5394zm-113.01-31.356c3.8332-3.8332 3.865-6.3452 0.13872-10.952-2.7231-3.3666-4.1543-3.6518-20.326-4.0505-20.333-0.50135-24.812 0.95881-25.534 8.3253-0.83679 8.5379 2.0856 9.7453 23.587 9.7453 17.021 0 19.395-0.32915 22.134-3.0681zm111.99 0c3.834-3.834 3.8651-6.3462 0.13561-10.952-2.6206-3.2363-4.1841-3.6216-14.697-3.6216-9.8752 0-12.114 0.47824-13.942 2.9778-3.1836 4.3539-2.6623 9.5481 1.232 12.276 5.3244 3.7294 23.311 3.2809 27.272-0.68005zm-82.08-30.123c4.2137-1.617 5.8341-8.0693 3.0815-12.27l-2.3772-3.6281h-36.475c-26.324 0-36.988 0.51231-38.316 1.8409-2.8311 2.8311-2.2807 11.557 0.84373 13.377 2.9342 1.709 68.965 2.3227 73.244 0.68069zm82.08-2.0919c3.6924-3.6924 3.8362-5.8911 0.68005-10.397-2.2634-3.2314-3.4492-3.4095-22.704-3.4095-13.756 0-20.91 0.59441-22.157 1.8409-2.8311 2.8311-2.2807 11.557 0.84373 13.377 1.4765 0.86001 11.141 1.5846 21.477 1.6103 16.783 0.0417 19.12-0.28141 21.86-3.0215zm-110.6-33.956c2.0321-3.6246 1.9946-4.4561-0.36269-8.0538-2.6164-3.9931-2.7244-4.0119-22.996-4.0119-13.796 0-20.962 0.59396-22.209 1.8409-2.8288 2.8288-2.2795 11.554 0.84373 13.401 1.5713 0.92909 10.932 1.4378 22.571 1.2268 19.727-0.35774 19.905-0.39301 22.153-4.4025zm111.62 0.79701c2.3552-3.5944 2.3935-4.4326 0.36853-8.0538-1.933-3.4569-3.4429-4.1099-10.431-4.5114-12.21-0.70156-17.27 5.05-11.584 13.168 1.9683 2.8102 3.8496 3.4095 10.703 3.4095 7.2742 0 8.644-0.50217 10.944-4.0119zm-72.101-32.215c2.358-3.5987 2.3951-4.4282 0.36093-8.0538l-2.2678-4.0419-39.496-0.40952c-25.488-0.26428-40.566 0.16293-42.512 1.2045-3.4478 1.8452-4.1982 10.449-1.175 13.472 1.3384 1.3384 12.844 1.8409 42.151 1.8409h40.31zm72.101 0c2.3573-3.5976 2.3947-4.4293 0.36284-8.0538-2.2403-3.9963-2.4861-4.0468-21.784-4.4714-22.46-0.49419-25.624 0.47478-25.624 7.8469 0 8.0999 1.6334 8.6902 24.049 8.6902 20.272 0 20.38-0.0189 22.996-4.0119zm-96.19-31.171c2.2752-4.2513 1.9644-7.8808-0.95082-11.102-2.2744-2.5132-5.3209-2.8054-29.248-2.8054-15.478 0-27.957 0.66779-29.676 1.588-3.4014 1.8203-4.1241 10.448-1.1264 13.446 1.301 1.301 10.283 1.8409 30.627 1.8409 26.89 0 28.891-0.19545 30.374-2.9673zm95.846-0.44219c3.1561-4.506 3.0123-6.7047-0.68005-10.397-2.6451-2.6451-5.1135-3.0681-17.904-3.0681-16.48 0-20.447 1.7722-20.447 9.1353 0 6.8336 2.3596 7.7394 20.163 7.7394 15.292 0 16.653-0.24598 18.869-3.4095zm-76.364-28.902c7.3233-2.7843 8.812-8.4813 3.5827-13.711-2.9072-2.9072-5.1135-3.0681-42.077-3.0681-33.967 0-39.331 0.32229-41.503 2.4935-3.7286 3.7286-2.4505 11.562 2.2744 13.94 4.9181 2.4749 71.345 2.7699 77.723 0.34514zm76.067-3.0954c3.482-4.2604 3.3887-6.8429-0.38351-10.615-2.1591-2.159-5.1135-3.0681-9.9714-3.0681-9.8555 0-15.94 6.8689-11.822 13.347 3.6184 5.6923 17.626 5.905 22.177 0.33664zm-111.48-31.235c3.0144-4.1284 2.7171-7.9848-0.89389-11.596-2.7208-2.7208-5.1135-3.0681-21.136-3.0681-20.549 0-24.886 1.6042-24.886 9.2044 0 7.9492 4.3012 9.4321 25.822 8.9027 16.644-0.40942 19.181-0.82339 21.093-3.4432zm112.01-0.0374c2.9912-4.0906 2.6841-7.9562-0.91807-11.558-3.9609-3.9609-21.947-4.4094-27.272-0.68004-4.3157 3.0228-4.3971 8.8968-0.18172 13.112 2.8326 2.8326 4.6351 3.1567 14.725 2.6472 9.129-0.46099 11.94-1.1862 13.647-3.5209zm-81.904-30.351c4.5649-3.5884 4.8006-8.443 0.6131-12.63l-3.8607-3.8607-32.669 0.02262c-23.157 0.01603-33.785 0.58468-36.504 1.9531-4.7967 2.4145-5.9186 9.3676-2.1783 13.501 2.4641 2.7228 5.138 2.9325 37.406 2.9325 25.478 0 35.403-0.51174 37.192-1.9176zm80.986-1.1506c4.0487-4.0487 3.8705-7.0074-0.69731-11.575-3.5362-3.5362-4.7735-3.764-20.326-3.7428-10.209 0.01394-18.032 0.76303-20.396 1.9531-4.7967 2.4145-5.9186 9.3676-2.1783 13.501 2.3399 2.5856 4.8941 2.9325 21.592 2.9325 16.893 0 19.269-0.33138 22.006-3.0681z" fill="#fff" stroke-width="1.5341"/>
</svg>
